<?xml version="1.0" standalone="no"?>
<!DOCTYPE svg PUBLIC "-//W3C//DTD SVG 20010904//EN"
 "http://www.w3.org/TR/2001/REC-SVG-20010904/DTD/svg10.dtd">
<svg version="1.0" xmlns="http://www.w3.org/2000/svg"
 width="16.000000pt" height="16.000000pt" viewBox="0 0 16.000000 16.000000"
 preserveAspectRatio="xMidYMid meet">
<metadata>
Created by potrace 1.11, written by Peter Selinger 2001-2013
</metadata>
<g transform="translate(0.000000,16.000000) scale(0.004000,-0.004000)"
fill="#000000" stroke="none">
<path d="M34 2898 c3 -29 6 -192 6 -361 l0 -308 193 3 c165 3 197 6 230 22 55
27 90 84 95 156 5 75 -11 123 -54 158 l-34 28 26 25 c105 96 51 278 -95 319
-20 5 -112 10 -205 10 l-169 0 7 -52z m325 -108 c10 -5 24 -23 31 -40 10 -25
10 -34 -4 -55 -16 -24 -21 -25 -106 -25 l-90 0 0 65 0 65 76 0 c41 0 83 -4 93
-10z m5 -281 c36 -17 54 -65 35 -97 -17 -32 -61 -44 -142 -40 l-62 3 -3 73 -3
72 75 0 c41 0 86 -5 100 -11z"/>
<path d="M240 2770 c8 -5 20 -10 25 -10 6 0 3 5 -5 10 -8 5 -19 10 -25 10 -5
0 -3 -5 5 -10z"/>
<path d="M323 2725 c16 -9 31 -14 35 -11 8 9 0 14 -33 21 l-30 6 28 -16z"/>
<path d="M245 2490 c28 -12 37 -12 30 0 -3 6 -16 10 -28 9 -21 0 -21 -1 -2 -9z"/>
<path d="M329 2460 c24 -11 46 -18 49 -15 5 5 -26 18 -68 29 -14 3 -5 -3 19
-14z"/>
<path d="M620 2591 l0 -361 80 0 80 0 0 355 0 355 -57 0 c-32 0 -68 3 -80 6
l-23 6 0 -361z"/>
<path d="M1062 2940 c-87 -18 -169 -94 -193 -178 -18 -61 -17 -304 2 -370 17
-61 96 -142 155 -160 57 -17 151 -15 207 4 56 19 131 95 146 150 6 22 14 85
18 142 l6 102 -136 0 -137 0 0 -64 0 -65 53 -3 52 -3 -1 -38 c-1 -24 -9 -46
-24 -61 -46 -50 -147 -41 -176 15 -19 37 -29 174 -19 264 6 56 12 74 35 97 50
50 155 31 175 -32 6 -18 15 -20 86 -20 69 0 79 2 79 18 0 32 -51 122 -84 147
-66 50 -161 71 -244 55z"/>
<path d="M567 2714 c-5 -50 -3 -72 8 -87 14 -20 15 -14 15 66 0 48 -4 87 -9
87 -4 0 -11 -30 -14 -66z"/>
<path d="M1144 2735 c25 -25 53 -45 65 -45 21 0 21 1 4 28 -32 51 -46 62 -79
62 l-33 0 43 -45z"/>
<path d="M1977 2744 c-4 -4 -7 -20 -7 -36 l0 -28 -49 30 c-26 17 -53 30 -60
30 -6 0 -36 -14 -66 -31 -58 -33 -76 -51 -24 -23 28 14 33 14 46 1 14 -13 -2
-25 -138 -106 l-154 -91 -6 33 c-6 28 -7 27 -8 -15 0 -26 3 -49 8 -53 5 -3 85
38 177 90 92 53 170 94 174 93 4 -2 84 -48 178 -103 l172 -100 0 -126 0 -126
122 -6 c152 -9 1435 -9 1466 -1 17 5 22 14 22 40 l0 34 -767 2 -768 3 -3 63
c-3 68 4 75 46 46 13 -9 29 -13 37 -10 20 7 19 70 0 86 -8 7 -86 54 -173 105
l-157 93 -5 53 c-5 49 -7 54 -30 57 -14 2 -29 0 -33 -4z"/>
<path d="M800 2534 c0 -93 4 -174 8 -180 11 -17 52 -36 52 -25 0 6 -7 36 -15
68 -9 34 -15 102 -15 169 0 87 -3 114 -15 124 -13 11 -15 -7 -15 -156z"/>
<path d="M1698 2654 c-38 -20 -36 -28 2 -9 17 9 30 18 30 20 0 7 -1 6 -32 -11z"/>
<path d="M1428 2628 c23 -24 36 -21 26 6 -3 9 -16 16 -27 16 l-21 0 22 -22z"/>
<path d="M1614 2604 c-18 -14 -18 -15 4 -4 12 6 22 13 22 15 0 8 -5 6 -26 -11z"/>
<path d="M520 2580 c23 -18 50 -26 50 -15 0 6 -56 35 -67 35 -4 0 3 -9 17 -20z"/>
<path d="M581 2441 c-1 -29 -6 -71 -12 -92 -10 -31 -9 -42 2 -55 13 -16 15
-15 20 12 9 41 8 134 -1 164 -6 20 -8 13 -9 -29z"/>
<path d="M1145 2471 c-5 -9 52 -57 60 -50 2 2 6 16 10 32 7 26 5 27 -28 27
-20 0 -38 -4 -42 -9z"/>
<path d="M420 2220 c-14 -4 -101 -9 -195 -10 -169 -2 -170 -2 -110 -16 72 -17
329 -28 405 -18 l55 7 -52 16 c-29 9 -55 20 -59 24 -8 8 -10 8 -44 -3z"/>
<path d="M1220 2214 c-25 -7 -65 -13 -90 -14 l-45 -2 30 -13 c30 -14 150 -20
178 -9 12 4 12 10 3 30 -12 27 -13 27 -76 8z"/>
<path d="M665 2194 c33 -8 96 -17 140 -19 l80 -5 -35 17 c-25 12 -66 18 -140
20 l-105 2 60 -15z"/>
<path d="M1399 2141 c-41 -8 -116 -50 -141 -78 -10 -10 -27 -41 -40 -68 -21
-45 -23 -65 -22 -211 0 -154 1 -162 27 -216 46 -94 127 -141 242 -141 81 0
125 16 180 64 62 55 78 103 83 259 7 219 -26 305 -139 362 -58 30 -133 41
-190 29z m131 -169 c23 -23 29 -40 35 -99 4 -40 4 -111 0 -159 -7 -78 -11 -91
-36 -116 -36 -36 -95 -39 -134 -5 -22 19 -28 35 -36 104 -7 53 -7 112 -1 169
9 77 14 91 37 111 39 34 98 31 135 -5z"/>
<path d="M1438 1973 c12 -2 32 -2 45 0 12 2 2 4 -23 4 -25 0 -35 -2 -22 -4z"/>
<path d="M42 1784 l3 -356 189 2 c164 1 193 3 226 20 68 35 110 106 110 185
-1 42 -32 108 -65 133 l-27 22 30 35 c38 43 53 97 43 150 -16 82 -55 128 -130
153 -21 7 -103 12 -208 12 l-173 0 2 -356z m337 192 c25 -22 28 -68 6 -90 -20
-20 -66 -28 -135 -24 l-55 3 -3 54 c-5 83 -4 84 87 80 60 -3 84 -9 100 -23z
m13 -283 c25 -22 23 -75 -3 -99 -16 -15 -40 -20 -105 -23 -84 -3 -84 -3 -84
22 0 13 -3 45 -6 71 l-7 46 93 0 c73 0 97 -4 112 -17z"/>
<path d="M293 1973 c9 -2 23 -2 30 0 6 3 -1 5 -18 5 -16 0 -22 -2 -12 -5z"/>
<path d="M621 1786 l4 -356 78 0 77 0 0 135 0 135 40 0 40 0 67 -135 68 -135
91 0 92 0 -78 147 -78 147 39 28 c116 84 102 274 -26 353 l-48 30 -185 3 -185
4 4 -356z m334 184 c26 -25 33 -67 15 -100 -13 -25 -62 -40 -131 -40 l-59 0 0
78 c0 43 3 82 8 86 4 5 38 6 75 3 53 -3 73 -9 92 -27z"/>
<path d="M848 1973 c12 -2 32 -2 45 0 12 2 2 4 -23 4 -25 0 -35 -2 -22 -4z"/>
<path d="M1742 2068 l3 -72 48 3 c26 1 66 0 88 -4 l39 -7 0 -279 0 -279 80 0
80 0 0 280 0 280 90 0 90 0 0 75 0 75 -260 0 -261 0 3 -72z"/>
<path d="M2320 1785 l0 -355 80 0 80 0 0 145 0 145 100 0 100 0 0 -145 0 -146
78 3 77 3 3 353 2 352 -80 0 -80 0 0 -140 0 -140 -100 0 -100 0 0 140 0 140
-80 0 -80 0 0 -355z"/>
<path d="M2920 1788 l0 -353 230 3 231 3 -3 67 -3 67 -153 3 -153 3 3 67 3 67
127 3 126 3 4 69 3 70 -132 0 -133 0 0 65 0 65 155 0 155 0 0 68 0 69 -122 6
c-66 4 -170 7 -230 7 l-108 0 0 -352z"/>
<path d="M3400 2055 c0 -60 3 -75 15 -75 12 0 15 15 15 75 0 60 -3 75 -15 75
-12 0 -15 -15 -15 -75z"/>
<path d="M3447 1933 c-4 -108 -7 -263 -7 -345 l0 -148 75 0 75 0 0 130 0 130
41 0 40 0 61 -130 61 -130 87 0 87 0 -73 144 -74 144 34 26 c89 67 101 230 23
315 -47 51 -88 61 -263 61 l-161 0 -6 -197z m363 157 c12 -8 9 -10 -13 -10
-16 0 -26 4 -22 10 8 12 16 12 35 0z m70 -61 c0 -5 -7 -9 -15 -9 -9 0 -15 9
-15 21 0 18 2 19 15 9 8 -7 15 -16 15 -21z m-115 -64 c27 -26 32 -70 12 -96
-22 -28 -55 -39 -121 -39 l-66 0 0 80 0 80 75 0 c67 0 79 -3 100 -25z"/>
<path d="M3620 1946 c0 -35 0 -35 30 -25 16 6 28 15 25 19 -6 10 19 20 47 20
37 0 15 7 -44 14 l-58 7 0 -35z"/>
<path d="M565 1940 c0 -84 2 -100 15 -98 12 3 16 22 18 87 3 76 -6 111 -27
111 -3 0 -6 -45 -6 -100z"/>
<path d="M2860 1737 c0 -286 0 -293 20 -294 20 -2 20 4 20 293 0 287 0 294
-20 294 -20 0 -20 -7 -20 -293z"/>
<path d="M1730 1972 c0 -4 33 -6 73 -4 107 5 114 10 15 11 -49 0 -88 -3 -88
-7z"/>
<path d="M2138 1973 c23 -2 61 -2 85 0 23 2 4 4 -43 4 -47 0 -66 -2 -42 -4z"/>
<path d="M3285 1970 c3 -5 24 -10 46 -10 21 0 39 5 39 10 0 6 -21 10 -46 10
-27 0 -43 -4 -39 -10z"/>
<path d="M1157 1891 c-3 -27 -15 -67 -25 -88 l-20 -38 28 0 c28 0 28 0 33 80
5 89 -7 124 -16 46z"/>
<path d="M513 1793 c9 -2 23 -2 30 0 6 3 -1 5 -18 5 -16 0 -22 -2 -12 -5z"/>
<path d="M575 1630 c0 -81 3 -110 13 -110 9 0 12 29 12 110 0 81 -3 110 -12
110 -10 0 -13 -29 -13 -110z"/>
<path d="M2600 1673 l0 -26 28 24 c15 13 29 25 31 27 2 1 -10 2 -27 2 -28 0
-32 -3 -32 -27z"/>
<path d="M800 1672 c0 -19 28 -45 43 -39 25 9 10 47 -19 47 -13 0 -24 -4 -24
-8z"/>
<path d="M3621 1653 c0 -16 3 -22 6 -15 2 6 11 12 19 12 8 0 14 7 14 15 0 8
-9 15 -20 15 -15 0 -20 -6 -19 -27z"/>
<path d="M3400 1511 c0 -78 13 -107 25 -58 10 38 1 130 -12 135 -10 3 -13 -17
-13 -77z"/>
<path d="M1155 1521 c27 -54 45 -72 45 -45 0 12 6 15 24 12 l23 -5 -26 37
c-26 38 -46 44 -34 12 3 -9 -4 -5 -16 11 -35 43 -44 32 -16 -22z"/>
<path d="M522 1470 c-18 -17 -30 -30 -27 -30 12 0 54 32 59 46 7 19 6 18 -32
-16z"/>
<path d="M785 1400 c-347 -3 -631 -7 -632 -8 -2 -1 -3 -18 -3 -38 l0 -37 887
8 887 7 33 36 c18 19 33 36 33 38 0 4 -120 3 -1205 -6z"/>
<path d="M2059 1377 c-49 -33 -59 -60 -59 -167 0 -78 4 -101 20 -128 35 -57
111 -77 176 -46 38 18 42 33 16 58 -17 14 -22 15 -46 2 -66 -34 -98 9 -94 124
3 77 5 84 30 103 24 18 30 18 58 7 27 -11 33 -10 50 5 27 24 25 32 -10 50 -43
22 -101 19 -141 -8z"/>
<path d="M2330 1223 c-35 -98 -66 -184 -68 -191 -3 -10 5 -13 34 -10 34 3 39
7 48 36 l9 32 68 0 67 0 12 -35 c10 -31 16 -35 46 -35 19 0 34 4 34 9 0 8
-100 289 -125 354 -4 10 -18 17 -34 17 -26 0 -29 -8 -91 -177z m116 5 c9 -29
19 -59 22 -65 3 -9 -9 -13 -42 -13 -25 0 -46 4 -46 9 0 7 14 52 35 109 8 21
13 14 31 -40z"/>
<path d="M2634 1387 c-2 -7 -3 -91 -2 -187 l3 -175 35 0 35 0 5 109 5 108 72
-111 c67 -103 75 -112 100 -109 l28 3 3 188 2 187 -35 0 -35 0 0 -110 c0 -60
-3 -110 -7 -110 -5 1 -39 50 -76 110 -62 100 -72 110 -98 110 -16 0 -32 -6
-35 -13z"/>
<path d="M3037 1216 c-37 -101 -67 -187 -67 -191 0 -3 17 -5 37 -3 33 3 39 7
47 36 l9 32 68 0 67 0 12 -35 c10 -31 16 -35 46 -35 19 0 34 4 34 9 0 5 -29
89 -65 187 -36 98 -65 179 -65 181 0 2 -13 3 -28 3 -28 0 -30 -4 -95 -184z
m143 -63 c0 -2 -20 -3 -45 -3 -25 0 -45 4 -45 9 0 7 19 67 36 111 4 9 15 -11
30 -50 13 -36 24 -66 24 -67z"/>
<path d="M3342 1213 l3 -188 92 1 c149 1 177 33 171 199 -2 86 -6 107 -23 125
-32 36 -78 50 -165 50 l-80 0 2 -187z m182 95 c11 -16 16 -46 16 -100 0 -96
-16 -118 -85 -118 l-45 0 0 120 0 120 49 0 c40 0 53 -4 65 -22z"/>
<path d="M3775 1388 c-3 -7 -32 -88 -65 -179 -33 -91 -60 -171 -60 -177 0 -7
14 -12 30 -12 25 0 33 6 47 35 17 35 17 35 83 35 67 0 67 0 76 -32 8 -29 14
-33 47 -36 20 -2 37 -1 37 1 0 6 -107 301 -125 342 -11 27 -20 35 -40 35 -14
0 -28 -6 -30 -12z m59 -172 c9 -27 16 -53 16 -58 0 -4 -21 -8 -46 -8 -33 0
-44 4 -41 13 3 6 14 36 23 65 10 29 21 49 25 45 3 -5 14 -30 23 -57z"/>
</g>
</svg>
