<?xml version="1.0" standalone="no"?>
<!DOCTYPE svg PUBLIC "-//W3C//DTD SVG 20010904//EN"
 "http://www.w3.org/TR/2001/REC-SVG-20010904/DTD/svg10.dtd">
<svg version="1.0" xmlns="http://www.w3.org/2000/svg"
 width="400.000000pt" height="400.000000pt" viewBox="0 0 400.000000 400.000000"
 preserveAspectRatio="xMidYMid meet">
<metadata>
Created by potrace 1.11, written by Peter Selinger 2001-2013
</metadata>
<g transform="translate(0.000000,400.000000) scale(0.100000,-0.100000)"
fill="#000000" stroke="none">
<path d="M0 2000 l0 -2000 2000 0 2000 0 0 2000 0 2000 -2000 0 -2000 0 0
-2000z m2947 1139 c9 -34 19 -41 153 -99 202 -89 257 -114 330 -150 41 -21
100 -45 130 -55 100 -32 215 -78 242 -97 l27 -18 -49 -46 -48 -45 -41 17 c-23
9 -45 14 -48 10 -10 -9 -17 -392 -8 -413 11 -26 5 -74 -11 -90 -8 -8 -14 -21
-14 -29 0 -15 -12 -16 -125 -19 -33 0 -217 -4 -410 -8 -192 -4 -527 -9 -743
-11 l-392 -3 -7 24 c-3 14 0 42 6 64 l12 39 73 0 c40 0 95 4 122 9 27 5 339
13 694 17 459 5 647 10 652 18 4 6 5 31 2 56 -9 73 -10 228 -1 321 l8 86 -47
12 c-25 7 -79 27 -118 45 -121 57 -317 146 -322 146 -2 0 -33 18 -68 40 -68
43 -76 46 -93 29 -7 -7 -38 -20 -70 -31 -32 -11 -94 -37 -138 -57 -176 -84
-273 -127 -355 -158 -36 -14 -96 -38 -135 -55 -38 -17 -108 -45 -156 -63 l-86
-32 -20 31 c-12 17 -24 45 -27 62 -7 29 -5 31 36 43 24 7 71 28 105 47 35 19
80 41 100 49 21 7 97 38 168 68 72 30 211 88 310 130 99 41 214 91 255 110 41
20 80 36 87 36 7 1 16 -13 20 -30z m-2404 -224 l21 -15 -24 0 c-32 0 -70 10
-70 19 0 13 52 10 73 -4z m77 -205 c24 -17 25 -22 22 -101 l-4 -84 41 -33 c55
-45 87 -104 101 -190 16 -95 8 -133 -38 -181 -41 -44 -38 -43 -242 -62 -174
-17 -279 -18 -288 -2 -4 6 -9 135 -10 285 -1 150 -5 297 -8 325 l-6 53 98 -5
c63 -3 126 0 174 9 85 16 124 13 160 -14z m1133 19 c18 -8 27 -24 36 -62 15
-72 31 -185 31 -229 0 -34 -4 -39 -37 -54 -40 -16 -210 -64 -230 -64 -8 0 -13
23 -15 68 -3 64 -4 67 -30 70 -24 3 -28 -1 -34 -33 -3 -20 -3 -78 2 -128 l9
-92 45 -2 c25 -1 37 1 28 4 -20 5 -22 16 -8 42 6 13 27 21 65 26 31 3 88 15
126 26 39 11 74 17 79 14 11 -7 60 -158 60 -185 0 -21 -6 -23 -105 -44 -39 -8
-83 -20 -99 -26 -27 -10 -28 -9 -22 15 8 30 9 29 -90 9 -64 -13 -87 -14 -130
-5 -32 8 -55 19 -59 29 -41 106 -70 436 -45 513 22 65 98 95 271 108 63 4 117
9 121 10 4 0 18 -4 31 -10z m-471 -31 c5 -17 2 -88 -7 -160 l-7 -58 -99 0 -98
0 -3 -135 c-2 -75 -1 -140 0 -145 2 -6 31 -10 65 -10 100 0 107 -4 107 -59 l0
-48 -64 -11 c-35 -7 -124 -12 -199 -12 -154 0 -147 -4 -147 92 l0 61 54 -7 55
-6 6 42 c3 24 5 79 3 123 l-3 80 -40 7 c-22 5 -58 11 -80 14 -78 11 -85 13
-85 37 -1 12 -9 40 -20 62 -11 22 -19 52 -20 67 0 24 5 28 57 38 70 15 320 37
434 39 62 1 88 -3 91 -11z m2313 -627 c126 -26 141 -34 167 -83 20 -38 23 -57
23 -163 0 -224 -22 -286 -105 -300 -22 -4 -40 -11 -40 -16 0 -5 32 -30 72 -55
67 -43 71 -47 53 -60 -10 -8 -31 -14 -46 -14 -14 0 -46 -3 -71 -6 -44 -6 -46
-5 -96 45 l-52 52 0 -35 c0 -19 -6 -38 -12 -43 -7 -4 -59 -10 -115 -13 l-102
-5 -3 315 c-2 173 -5 321 -8 329 -4 11 12 20 60 33 55 16 137 33 175 37 6 0
51 -8 100 -18z m-365 -67 c0 -52 -1 -54 -27 -54 -61 0 -216 -29 -224 -42 -5
-7 -9 -37 -9 -67 l0 -54 129 5 129 5 4 -71 c2 -43 -1 -81 -8 -97 -12 -24 -19
-26 -130 -37 -65 -7 -119 -14 -119 -15 -1 -1 0 -37 3 -79 l4 -78 47 0 c26 0
73 5 104 10 67 13 100 1 95 -33 -6 -39 -48 -49 -238 -55 -97 -3 -193 -2 -212
2 l-35 6 0 118 c0 64 -7 162 -15 217 -9 55 -20 145 -23 201 l-7 101 31 13 c21
8 52 11 89 7 41 -5 91 1 177 18 170 34 219 42 228 38 4 -2 7 -29 7 -59z
m-1024 -19 c7 -33 19 -93 28 -133 25 -113 31 -106 -81 -99 -54 3 -108 9 -121
13 l-23 7 3 -191 c2 -118 -1 -195 -7 -201 -5 -5 -32 -13 -59 -17 l-49 -7 8 59
c9 69 9 317 -1 346 -8 27 -40 36 -92 26 -24 -4 -49 -5 -54 -2 -7 4 -9 44 -6
105 5 91 3 99 -15 105 -43 14 8 23 188 34 104 6 192 13 194 16 3 3 21 4 41 2
34 -3 35 -4 46 -63z m-534 27 c25 -25 50 -198 52 -362 1 -117 -2 -140 -19
-175 -35 -70 -131 -105 -290 -105 -117 0 -130 8 -139 91 -7 69 9 314 25 399
31 155 72 183 259 175 73 -4 98 -9 112 -23z m-439 -29 c20 -44 22 -63 21 -213
-1 -205 -9 -234 -78 -252 -43 -11 -45 -13 -29 -30 9 -10 38 -32 66 -50 45 -29
48 -33 31 -45 -10 -7 -30 -13 -45 -13 -14 0 -41 -3 -58 -6 -29 -6 -37 -2 -77
41 l-44 48 0 -31 c0 -42 -22 -52 -117 -52 l-78 0 3 177 c2 98 -1 237 -6 308
-5 72 -7 132 -5 135 2 2 61 5 131 5 70 1 138 6 152 13 14 6 44 11 68 11 42 1
44 0 65 -46z m-565 12 c23 -9 42 -22 42 -28 0 -6 -11 -29 -25 -53 -27 -47 -23
-57 31 -68 31 -7 54 -38 54 -75 0 -10 9 -53 20 -96 11 -43 20 -99 20 -124 0
-84 -67 -151 -168 -171 -81 -15 -314 -15 -366 1 l-46 13 2 271 c1 148 -1 280
-6 293 -6 19 -4 22 19 22 14 0 36 5 47 11 61 33 300 35 376 4z m1625 10 c20
-8 56 -14 81 -13 25 1 50 -2 55 -7 11 -12 33 -163 31 -214 -1 -20 -2 -51 -1
-70 l1 -33 46 7 c81 12 78 7 69 109 -4 50 -8 118 -9 151 l-1 60 34 3 c18 2 38
-1 43 -6 14 -14 57 -382 65 -544 l6 -137 -67 0 c-65 0 -66 1 -66 27 0 15 -7
52 -15 82 -8 30 -15 67 -15 81 0 30 -15 39 -66 39 l-35 0 3 -102 3 -103 -65 0
c-36 0 -74 -4 -86 -8 -12 -4 -28 -2 -39 7 -17 13 -18 19 -7 78 15 83 16 506 1
545 -5 15 -15 31 -21 34 -11 7 -3 29 11 29 5 0 25 -7 44 -15z"/>
<path d="M382 2544 c-20 -17 -22 -25 -16 -67 l7 -48 46 7 c59 8 96 28 117 60
15 23 15 27 2 40 -9 9 -41 18 -74 21 -48 4 -63 2 -82 -13z"/>
<path d="M378 2299 c-23 -13 -23 -32 2 -54 17 -16 32 -17 117 -12 106 7 137
22 117 55 -9 14 -29 17 -115 19 -59 2 -112 -2 -121 -8z"/>
<path d="M3452 1943 l-43 -4 2 -151 3 -150 94 4 c67 3 96 8 103 18 20 32 29
90 29 188 l0 102 -72 -2 c-40 -1 -92 -3 -116 -5z"/>
<path d="M1535 1823 c-80 -10 -75 -2 -75 -119 l0 -106 46 7 c77 11 74 6 74
121 0 57 -3 103 -7 103 -5 -1 -21 -4 -38 -6z"/>
<path d="M1103 1913 c-15 -5 -19 -283 -5 -283 28 0 51 153 38 244 -7 46 -10
49 -33 39z"/>
<path d="M361 1933 c-20 -17 -23 -24 -16 -61 8 -49 26 -62 87 -62 60 0 126 36
152 82 11 20 17 40 13 44 -4 4 -53 9 -109 12 -91 4 -106 2 -127 -15z"/>
<path d="M460 1729 c-25 -5 -56 -14 -69 -21 -21 -11 -22 -17 -16 -58 4 -25 7
-65 7 -89 -2 -70 9 -81 78 -81 32 0 82 5 110 11 l50 11 0 87 c0 101 -12 125
-68 141 -20 5 -39 9 -42 9 -3 -1 -25 -5 -50 -10z"/>
</g>
</svg>
